<?xml version="1.0" standalone="no"?>
<!DOCTYPE svg PUBLIC "-//W3C//DTD SVG 20010904//EN"
 "http://www.w3.org/TR/2001/REC-SVG-20010904/DTD/svg10.dtd">
<svg version="1.0" xmlns="http://www.w3.org/2000/svg"
 width="512.000000pt" height="512.000000pt" viewBox="0 0 512.000000 512.000000"
 preserveAspectRatio="xMidYMid meet">

<g transform="translate(0.000000,512.000000) scale(0.100000,-0.100000)"
fill="#000000" stroke="none">
<path d="M2305 4679 c-404 -51 -803 -224 -1110 -481 -90 -75 -209 -194 -297
-298 l-47 -55 -1 263 0 262 -210 0 -210 0 0 -640 0 -640 638 2 637 3 3 213 2
212 -280 0 -281 0 33 46 c62 86 168 203 251 275 785 680 1970 524 2546 -336
339 -506 380 -1161 106 -1707 -346 -692 -1117 -1066 -1872 -908 -663 138
-1185 660 -1323 1323 -16 75 -40 274 -40 335 0 9 -49 12 -210 12 l-210 0 0
-72 c0 -261 84 -596 214 -862 110 -225 228 -389 410 -572 183 -182 348 -300
571 -410 420 -205 898 -266 1365 -173 298 59 612 203 870 397 181 137 403 387
530 596 274 455 367 1019 254 1546 -66 308 -198 591 -397 855 -73 96 -265 290
-363 367 -311 245 -698 404 -1089 448 -107 12 -391 11 -490 -1z"/>
<path d="M2350 3047 l0 -582 405 -405 405 -405 152 153 153 152 -348 348 -347
347 0 488 0 487 -210 0 -210 0 0 -583z"/>
</g>
</svg>
