<?xml version="1.0" standalone="no"?>
<!DOCTYPE svg PUBLIC "-//W3C//DTD SVG 20010904//EN"
 "http://www.w3.org/TR/2001/REC-SVG-20010904/DTD/svg10.dtd">
<svg version="1.0" xmlns="http://www.w3.org/2000/svg"
 width="512.000000pt" height="512.000000pt" viewBox="0 0 512.000000 512.000000"
 preserveAspectRatio="xMidYMid meet">

<g transform="translate(0.000000,512.000000) scale(0.100000,-0.100000)"
fill="#000000" stroke="none">
<path d="M1270 4672 c-28 -11 -68 -40 -105 -77 -105 -104 -95 65 -95 -1711 0
-1750 -6 -1611 78 -1706 25 -27 68 -61 96 -76 l51 -27 1585 0 1585 0 50 27
c60 32 114 87 146 148 l24 45 0 1585 0 1585 -27 51 c-15 28 -49 71 -76 96 -95
84 45 78 -1711 77 -1429 0 -1560 -2 -1601 -17z m3177 -225 l28 -27 0 -1540 0
-1540 -28 -27 -27 -28 -1540 0 -1540 0 -27 28 -28 27 0 1539 c0 1525 0 1539
20 1561 11 12 29 26 40 31 11 4 707 7 1547 6 l1528 -2 27 -28z"/>
<path d="M2291 3716 c-52 -29 -50 -5 -51 -834 0 -705 1 -776 17 -802 9 -16 27
-33 40 -39 64 -29 60 -31 638 373 320 224 557 397 567 413 23 36 23 70 0 106
-10 16 -247 189 -567 413 -587 410 -579 406 -644 370z m564 -575 c198 -139
360 -256 360 -261 0 -7 -618 -446 -742 -527 l-23 -15 0 542 0 542 23 -15 c12
-8 184 -128 382 -266z"/>
<path d="M532 2418 l3 -1633 29 -63 c34 -73 86 -124 165 -161 l56 -26 1633 -3
1632 -2 0 110 0 110 -1621 0 -1621 0 -29 29 -29 29 0 1621 0 1621 -110 0 -110
0 2 -1632z"/>
</g>
</svg>
