<?xml version="1.0" standalone="no"?>
<!DOCTYPE svg PUBLIC "-//W3C//DTD SVG 20010904//EN"
 "http://www.w3.org/TR/2001/REC-SVG-20010904/DTD/svg10.dtd">
<svg version="1.0" xmlns="http://www.w3.org/2000/svg"
 width="512.000000pt" height="512.000000pt" viewBox="0 0 512.000000 512.000000"
 preserveAspectRatio="xMidYMid meet">
<metadata>
Created by potrace 1.16, written by Peter Selinger 2001-2019
</metadata>
<g transform="translate(0.000000,512.000000) scale(0.100000,-0.100000)"
fill="#000000" stroke="none">
<path d="M4017 4576 c-224 -45 -409 -84 -410 -88 -2 -5 534 -706 574 -752 5
-6 95 8 223 35 201 41 215 45 211 64 -3 11 -39 193 -81 405 -85 435 -81 420
-97 419 -7 -1 -196 -38 -420 -83z"/>
<path d="M2758 4328 c-109 -23 -198 -45 -198 -49 0 -7 549 -718 579 -751 10
-10 426 77 424 90 -5 24 -576 747 -591 749 -9 1 -106 -17 -214 -39z"/>
<path d="M1705 4118 c-104 -22 -192 -42 -194 -44 -2 -2 3 -12 11 -21 8 -10
141 -181 296 -379 l281 -361 208 41 c127 26 208 46 208 54 0 6 -128 178 -285
381 -243 315 -289 370 -310 370 -14 0 -110 -19 -215 -41z"/>
<path d="M741 3924 c-141 -30 -206 -59 -274 -123 -62 -59 -100 -123 -122 -206
-23 -88 -19 -130 30 -375 l45 -224 0 -1088 c0 -1218 -2 -1175 69 -1285 64 -99
151 -161 261 -187 57 -14 279 -16 1808 -16 1946 0 1826 -4 1939 69 102 66 172
167 193 280 6 34 10 447 10 1137 l0 1084 -2102 1 -2103 1 488 98 c268 53 489
99 492 101 2 3 -127 174 -288 381 -216 279 -297 377 -312 377 -11 -1 -71 -12
-134 -25z m3519 -2214 l0 -850 -1700 0 -1700 0 0 850 0 850 1700 0 1700 0 0
-850z"/>
</g>
</svg>
