<?xml version="1.0" standalone="no"?>
<!DOCTYPE svg PUBLIC "-//W3C//DTD SVG 20010904//EN"
 "http://www.w3.org/TR/2001/REC-SVG-20010904/DTD/svg10.dtd">
<svg version="1.0" xmlns="http://www.w3.org/2000/svg"
 width="512.000000pt" height="512.000000pt" viewBox="0 0 512.000000 512.000000"
 preserveAspectRatio="xMidYMid meet">
<metadata>
Created by potrace 1.16, written by Peter Selinger 2001-2019
</metadata>
<g transform="translate(0.000000,512.000000) scale(0.100000,-0.100000)"
fill="#000000" stroke="none">
<path d="M1960 4888 c-91 -49 -109 -99 -129 -350 -33 -396 -178 -820 -399
-1158 -37 -58 -107 -157 -154 -220 -199 -268 -318 -524 -382 -820 -91 -423
-48 -814 128 -1175 259 -528 755 -876 1351 -946 125 -15 391 -6 505 16 354 69
648 224 895 470 247 248 398 535 472 900 15 74 18 139 18 365 0 266 -10 412
-41 617 -53 353 -180 712 -288 811 -76 70 -176 79 -265 24 -37 -22 -54 -44
-98 -127 -30 -55 -66 -118 -80 -140 l-27 -40 -13 95 c-62 438 -273 865 -587
1189 -186 190 -380 334 -606 444 -106 53 -133 62 -190 65 -54 3 -73 -1 -110
-20z m571 -766 c106 -101 219 -243 290 -364 164 -279 249 -648 219 -948 -24
-239 -24 -272 -2 -317 57 -111 188 -151 301 -94 67 35 214 156 309 256 51 53
95 95 97 94 5 -6 43 -206 54 -289 36 -256 44 -627 17 -780 -89 -504 -481 -906
-986 -1010 -133 -28 -351 -30 -485 -6 -474 87 -848 413 -998 871 -84 255 -76
583 22 875 63 187 144 336 277 506 109 141 223 323 309 499 131 265 209 493
261 762 15 76 28 144 30 151 6 21 173 -100 285 -206z"/>
</g>
</svg>
