<?xml version="1.0" standalone="no"?>
<!DOCTYPE svg PUBLIC "-//W3C//DTD SVG 20010904//EN"
 "http://www.w3.org/TR/2001/REC-SVG-20010904/DTD/svg10.dtd">
<svg version="1.0" xmlns="http://www.w3.org/2000/svg"
 width="512.000000pt" height="512.000000pt" viewBox="0 0 512.000000 512.000000"
 preserveAspectRatio="xMidYMid meet">

<g transform="translate(0.000000,512.000000) scale(0.100000,-0.100000)"
fill="#000000" stroke="none">
<path d="M1133 3843 c-133 -152 -221 -284 -304 -458 -84 -178 -139 -354 -170
-550 -17 -104 -17 -446 0 -550 61 -387 229 -738 490 -1025 l50 -55 76 76 76
75 -71 80 c-187 207 -331 495 -390 777 -109 520 38 1075 389 1472 l71 80 -72
72 c-40 40 -75 73 -79 73 -3 0 -33 -30 -66 -67z"/>
<path d="M3842 3837 l-73 -73 71 -80 c186 -207 332 -497 390 -776 111 -536
-40 -1086 -408 -1492 l-54 -59 77 -76 76 -76 46 50 c606 671 682 1628 189
2369 -56 85 -214 277 -231 283 -6 2 -43 -30 -83 -70z"/>
<path d="M1600 3428 c-387 -461 -426 -1116 -95 -1608 35 -52 84 -117 107 -143
l43 -48 74 75 74 75 -26 33 c-198 243 -281 467 -281 753 1 281 84 502 281 743
l27 33 -76 75 -75 76 -53 -64z"/>
<path d="M3391 3416 l-74 -75 26 -33 c197 -241 281 -466 281 -748 0 -282 -84
-507 -281 -748 l-26 -33 74 -75 74 -75 43 48 c148 166 256 389 309 634 25 117
25 381 0 498 -53 245 -161 468 -309 634 l-43 48 -74 -75z"/>
<path d="M2420 3184 c-111 -23 -224 -86 -311 -173 -251 -252 -252 -650 0 -901
253 -252 651 -253 901 -1 253 254 253 648 0 902 -155 156 -374 220 -590 173z
m286 -225 c189 -71 306 -266 275 -460 -38 -233 -257 -396 -482 -360 -233 38
-396 257 -360 482 36 224 235 382 456 362 33 -3 83 -14 111 -24z"/>
</g>
</svg>
