<?xml version="1.0" standalone="no"?>
<!DOCTYPE svg PUBLIC "-//W3C//DTD SVG 20010904//EN"
 "http://www.w3.org/TR/2001/REC-SVG-20010904/DTD/svg10.dtd">
<svg version="1.0" xmlns="http://www.w3.org/2000/svg"
 width="48.000000pt" height="48.000000pt" viewBox="0 0 48.000000 48.000000"
 preserveAspectRatio="xMidYMid meet">
<metadata>
Created by potrace 1.16, written by Peter Selinger 2001-2019
</metadata>
<g transform="translate(0.000000,48.000000) scale(0.100000,-0.100000)"
fill="#000000" stroke="none">
<path d="M385 425 c-5 -2 -65 -13 -132 -26 l-123 -22 0 -98 0 -99 -28 0 c-35
0 -62 -27 -62 -62 0 -33 29 -58 67 -58 50 0 62 24 65 130 l3 95 90 17 c50 9
93 17 98 17 4 1 7 -19 7 -44 0 -41 -2 -45 -25 -45 -32 0 -65 -33 -65 -65 0
-32 33 -65 65 -65 14 0 34 9 45 20 18 18 20 33 20 165 0 80 -3 145 -7 144 -5
0 -12 -2 -18 -4z"/>
</g>
</svg>
