<?xml version="1.0" standalone="no"?>
<!DOCTYPE svg PUBLIC "-//W3C//DTD SVG 20010904//EN"
 "http://www.w3.org/TR/2001/REC-SVG-20010904/DTD/svg10.dtd">
<svg version="1.0" xmlns="http://www.w3.org/2000/svg"
 width="800.000000pt" height="800.000000pt" viewBox="0 0 800.000000 800.000000"
 preserveAspectRatio="xMidYMid meet">

<g transform="translate(0.000000,800.000000) scale(0.100000,-0.100000)"
fill="#000000" stroke="none">
<path d="M5173 7950 c-171 -15 -368 -67 -528 -139 -57 -26 -1361 -769 -1955
-1114 -518 -301 -885 -520 -985 -588 -383 -260 -605 -592 -682 -1019 -37 -211
-16 -597 47 -845 99 -391 362 -709 795 -961 75 -44 102 -64 93 -71 -7 -5 -56
-33 -109 -62 -136 -75 -250 -163 -372 -291 -218 -227 -359 -497 -429 -820 -20
-92 -22 -133 -22 -330 0 -195 3 -238 22 -324 115 -515 430 -925 888 -1154 444
-222 964 -237 1411 -39 98 43 783 432 1698 962 264 153 618 358 787 456 367
212 445 262 564 362 221 185 414 467 504 736 165 492 94 1015 -198 1456 -47
71 -108 141 -207 240 -141 142 -233 212 -402 309 -46 26 -83 49 -83 51 0 2 58
37 130 79 492 289 788 751 841 1312 32 353 -70 752 -270 1050 -335 502 -944
796 -1538 744z m363 -365 c475 -83 887 -434 1033 -882 149 -456 38 -956 -291
-1308 -107 -114 -195 -178 -443 -322 -269 -156 -304 -180 -327 -223 -26 -50
-24 -123 6 -174 20 -35 52 -57 210 -151 373 -220 473 -294 597 -441 210 -249
312 -528 312 -849 0 -352 -132 -665 -388 -920 -122 -122 -205 -179 -540 -372
-143 -82 -516 -298 -830 -480 -724 -420 -1534 -882 -1626 -928 -300 -151 -680
-170 -1014 -51 -190 68 -356 178 -505 332 -236 246 -360 554 -360 900 0 343
132 670 369 912 101 104 175 159 328 244 227 125 361 208 387 239 56 66 53
167 -5 227 -17 17 -125 86 -242 153 -283 164 -328 194 -433 282 -97 81 -158
148 -221 242 -97 143 -144 273 -174 483 -18 123 -20 177 -16 341 4 168 8 210
30 292 53 200 131 341 272 488 144 151 243 215 1080 703 453 264 1951 1121
2023 1157 83 42 221 87 318 105 108 19 340 20 450 1z"/>
<path d="M3179 5257 c-48 -32 -77 -80 -84 -140 -3 -29 -5 -556 -3 -1172 l3
-1120 23 -40 c35 -61 83 -90 151 -90 56 0 60 2 1046 574 545 315 1001 583
1013 595 37 33 52 70 52 128 0 61 -21 103 -72 141 -26 19 -1686 979 -1929
1116 -71 40 -148 43 -200 8z m1039 -897 c348 -200 632 -367 632 -370 0 -5
-1369 -801 -1391 -808 -5 -2 -9 304 -9 808 l0 812 68 -39 c38 -21 353 -202
700 -403z"/>
</g>
</svg>
